<?xml version="1.0" encoding="UTF-8" standalone="no"?>
<!DOCTYPE svg PUBLIC "-//W3C//DTD SVG 1.1//EN"
 "http://www.w3.org/Graphics/SVG/1.1/DTD/svg11.dtd">
<!-- Generated by graphviz version 2.49.1 (20210923.0004)
 -->
<!-- Pages: 1 -->
<svg width="215pt" height="338pt"
 viewBox="0.00 0.00 215.00 338.00" xmlns="http://www.w3.org/2000/svg" xmlns:xlink="http://www.w3.org/1999/xlink">
<g id="graph0" class="graph" transform="scale(1 1) rotate(0) translate(4 334)">
<polygon fill="white" stroke="transparent" points="-4,4 -4,-334 211,-334 211,4 -4,4"/>
<!-- q2 -->
<g id="node1" class="node">
<title>q2</title>
<ellipse fill="none" stroke="black" cx="43.5" cy="-312" rx="18" ry="18"/>
<text text-anchor="middle" x="43.5" y="-308.3" font-family="Times New Roman,serif" font-size="14.00">1</text>
</g>
<!-- S0 -->
<g id="node2" class="node">
<title>S0</title>
<path fill="none" stroke="black" d="M12,-196.5C12,-196.5 45,-196.5 45,-196.5 51,-196.5 57,-202.5 57,-208.5 57,-208.5 57,-230.5 57,-230.5 57,-236.5 51,-242.5 45,-242.5 45,-242.5 12,-242.5 12,-242.5 6,-242.5 0,-236.5 0,-230.5 0,-230.5 0,-208.5 0,-208.5 0,-202.5 6,-196.5 12,-196.5"/>
<text text-anchor="middle" x="11.5" y="-227.3" font-family="Times New Roman,serif" font-size="14.00">a</text>
<polyline fill="none" stroke="black" points="23,-219.5 23,-242.5 "/>
<text text-anchor="middle" x="40" y="-227.3" font-family="Times New Roman,serif" font-size="14.00">5/9</text>
<polyline fill="none" stroke="black" points="0,-219.5 57,-219.5 "/>
<text text-anchor="middle" x="28.5" y="-204.3" font-family="Times New Roman,serif" font-size="14.00">0</text>
</g>
<!-- q2&#45;&#45;S0 -->
<g id="edge1" class="edge">
<title>q2&#45;&#45;S0</title>
<path fill="none" stroke="black" d="M40.68,-293.98C38.27,-279.44 34.78,-258.42 32.16,-242.58"/>
<text text-anchor="middle" x="41" y="-264.8" font-family="Times New Roman,serif" font-size="14.00">0</text>
</g>
<!-- q1 -->
<g id="node3" class="node">
<title>q1</title>
<ellipse fill="none" stroke="black" cx="97.5" cy="-219.5" rx="22.2" ry="22.2"/>
<text text-anchor="middle" x="97.5" y="-215.8" font-family="Times New Roman,serif" font-size="14.00">4/9</text>
</g>
<!-- q2&#45;&#45;q1 -->
<g id="edge2" class="edge">
<title>q2&#45;&#45;q1</title>
<path fill="none" stroke="black" d="M52.42,-296.06C61.76,-280.39 76.46,-255.76 86.52,-238.91"/>
<text text-anchor="middle" x="76" y="-264.8" font-family="Times New Roman,serif" font-size="14.00">1</text>
</g>
<!-- S1 -->
<g id="node4" class="node">
<title>S1</title>
<path fill="none" stroke="black" d="M55.5,-98.5C55.5,-98.5 89.5,-98.5 89.5,-98.5 95.5,-98.5 101.5,-104.5 101.5,-110.5 101.5,-110.5 101.5,-132.5 101.5,-132.5 101.5,-138.5 95.5,-144.5 89.5,-144.5 89.5,-144.5 55.5,-144.5 55.5,-144.5 49.5,-144.5 43.5,-138.5 43.5,-132.5 43.5,-132.5 43.5,-110.5 43.5,-110.5 43.5,-104.5 49.5,-98.5 55.5,-98.5"/>
<text text-anchor="middle" x="55.5" y="-129.3" font-family="Times New Roman,serif" font-size="14.00">b</text>
<polyline fill="none" stroke="black" points="67.5,-121.5 67.5,-144.5 "/>
<text text-anchor="middle" x="84.5" y="-129.3" font-family="Times New Roman,serif" font-size="14.00">2/9</text>
<polyline fill="none" stroke="black" points="43.5,-121.5 101.5,-121.5 "/>
<text text-anchor="middle" x="72.5" y="-106.3" font-family="Times New Roman,serif" font-size="14.00">10</text>
</g>
<!-- q1&#45;&#45;S1 -->
<g id="edge3" class="edge">
<title>q1&#45;&#45;S1</title>
<path fill="none" stroke="black" d="M92.08,-197.67C88,-182.01 82.42,-160.59 78.26,-144.63"/>
<text text-anchor="middle" x="90" y="-166.8" font-family="Times New Roman,serif" font-size="14.00">0</text>
</g>
<!-- q0 -->
<g id="node5" class="node">
<title>q0</title>
<ellipse fill="none" stroke="black" cx="141.5" cy="-121.5" rx="22.2" ry="22.2"/>
<text text-anchor="middle" x="141.5" y="-117.8" font-family="Times New Roman,serif" font-size="14.00">2/9</text>
</g>
<!-- q1&#45;&#45;q0 -->
<g id="edge4" class="edge">
<title>q1&#45;&#45;q0</title>
<path fill="none" stroke="black" d="M106.4,-199.07C114.04,-182.42 124.98,-158.55 132.61,-141.9"/>
<text text-anchor="middle" x="126" y="-166.8" font-family="Times New Roman,serif" font-size="14.00">1</text>
</g>
<!-- S2 -->
<g id="node6" class="node">
<title>S2</title>
<path fill="none" stroke="black" d="M87,-0.5C87,-0.5 120,-0.5 120,-0.5 126,-0.5 132,-6.5 132,-12.5 132,-12.5 132,-34.5 132,-34.5 132,-40.5 126,-46.5 120,-46.5 120,-46.5 87,-46.5 87,-46.5 81,-46.5 75,-40.5 75,-34.5 75,-34.5 75,-12.5 75,-12.5 75,-6.5 81,-0.5 87,-0.5"/>
<text text-anchor="middle" x="86.5" y="-31.3" font-family="Times New Roman,serif" font-size="14.00">c</text>
<polyline fill="none" stroke="black" points="98,-23.5 98,-46.5 "/>
<text text-anchor="middle" x="115" y="-31.3" font-family="Times New Roman,serif" font-size="14.00">1/9</text>
<polyline fill="none" stroke="black" points="75,-23.5 132,-23.5 "/>
<text text-anchor="middle" x="103.5" y="-8.3" font-family="Times New Roman,serif" font-size="14.00">110</text>
</g>
<!-- q0&#45;&#45;S2 -->
<g id="edge5" class="edge">
<title>q0&#45;&#45;S2</title>
<path fill="none" stroke="black" d="M133.63,-100.61C127.41,-84.9 118.74,-62.99 112.29,-46.71"/>
<text text-anchor="middle" x="129" y="-68.8" font-family="Times New Roman,serif" font-size="14.00">0</text>
</g>
<!-- S3 -->
<g id="node7" class="node">
<title>S3</title>
<path fill="none" stroke="black" d="M162,-0.5C162,-0.5 195,-0.5 195,-0.5 201,-0.5 207,-6.5 207,-12.5 207,-12.5 207,-34.5 207,-34.5 207,-40.5 201,-46.5 195,-46.5 195,-46.5 162,-46.5 162,-46.5 156,-46.5 150,-40.5 150,-34.5 150,-34.5 150,-12.5 150,-12.5 150,-6.5 156,-0.5 162,-0.5"/>
<text text-anchor="middle" x="161.5" y="-31.3" font-family="Times New Roman,serif" font-size="14.00">n</text>
<polyline fill="none" stroke="black" points="173,-23.5 173,-46.5 "/>
<text text-anchor="middle" x="190" y="-31.3" font-family="Times New Roman,serif" font-size="14.00">1/9</text>
<polyline fill="none" stroke="black" points="150,-23.5 207,-23.5 "/>
<text text-anchor="middle" x="178.5" y="-8.3" font-family="Times New Roman,serif" font-size="14.00">111</text>
</g>
<!-- q0&#45;&#45;S3 -->
<g id="edge6" class="edge">
<title>q0&#45;&#45;S3</title>
<path fill="none" stroke="black" d="M149.17,-100.61C155.22,-84.9 163.66,-62.99 169.94,-46.71"/>
<text text-anchor="middle" x="165" y="-68.8" font-family="Times New Roman,serif" font-size="14.00">1</text>
</g>
</g>
</svg>
