<?xml version="1.0" encoding="UTF-8" standalone="no"?>
<!DOCTYPE svg PUBLIC "-//W3C//DTD SVG 1.1//EN"
 "http://www.w3.org/Graphics/SVG/1.1/DTD/svg11.dtd">
<!-- Generated by graphviz version 2.49.1 (20210923.0004)
 -->
<!-- Pages: 1 -->
<svg width="372pt" height="544pt"
 viewBox="0.00 0.00 371.99 544.34" xmlns="http://www.w3.org/2000/svg" xmlns:xlink="http://www.w3.org/1999/xlink">
<g id="graph0" class="graph" transform="scale(1 1) rotate(0) translate(4 540.34)">
<polygon fill="white" stroke="transparent" points="-4,4 -4,-540.34 367.99,-540.34 367.99,4 -4,4"/>
<!-- q4 -->
<g id="node1" class="node">
<title>q4</title>
<ellipse fill="none" stroke="black" cx="225.99" cy="-509.47" rx="27" ry="26.74"/>
<text text-anchor="middle" x="225.99" y="-513.27" font-family="Times New Roman,serif" font-size="14.00">q4</text>
<text text-anchor="middle" x="225.99" y="-498.27" font-family="Times New Roman,serif" font-size="14.00">1.0</text>
</g>
<!-- q3 -->
<g id="node2" class="node">
<title>q3</title>
<ellipse fill="none" stroke="black" cx="188.99" cy="-404.73" rx="27" ry="26.74"/>
<text text-anchor="middle" x="188.99" y="-408.53" font-family="Times New Roman,serif" font-size="14.00">q3</text>
<text text-anchor="middle" x="188.99" y="-393.53" font-family="Times New Roman,serif" font-size="14.00">0.6</text>
</g>
<!-- q4&#45;&#45;q3 -->
<g id="edge1" class="edge">
<title>q4&#45;&#45;q3</title>
<path fill="none" stroke="black" d="M217.13,-483.86C211.27,-467.6 203.62,-446.36 197.78,-430.14"/>
<text text-anchor="middle" x="213.49" y="-453.4" font-family="Times New Roman,serif" font-size="14.00">0</text>
</g>
<!-- q2 -->
<g id="node3" class="node">
<title>q2</title>
<ellipse fill="none" stroke="black" cx="263.99" cy="-404.73" rx="27" ry="26.74"/>
<text text-anchor="middle" x="263.99" y="-408.53" font-family="Times New Roman,serif" font-size="14.00">q2</text>
<text text-anchor="middle" x="263.99" y="-393.53" font-family="Times New Roman,serif" font-size="14.00">0.4</text>
</g>
<!-- q4&#45;&#45;q2 -->
<g id="edge2" class="edge">
<title>q4&#45;&#45;q2</title>
<path fill="none" stroke="black" d="M235,-484.12C241.01,-467.86 248.89,-446.56 254.92,-430.26"/>
<text text-anchor="middle" x="251.49" y="-453.4" font-family="Times New Roman,serif" font-size="14.00">1</text>
</g>
<!-- q1 -->
<g id="node4" class="node">
<title>q1</title>
<ellipse fill="none" stroke="black" cx="112.99" cy="-289.38" rx="28.98" ry="26.74"/>
<text text-anchor="middle" x="112.99" y="-293.18" font-family="Times New Roman,serif" font-size="14.00">q1</text>
<text text-anchor="middle" x="112.99" y="-278.18" font-family="Times New Roman,serif" font-size="14.00">0.35</text>
</g>
<!-- q3&#45;&#45;q1 -->
<g id="edge3" class="edge">
<title>q3&#45;&#45;q1</title>
<path fill="none" stroke="black" d="M174.34,-381.88C160.97,-361.93 141.3,-332.6 127.86,-312.56"/>
<text text-anchor="middle" x="161.49" y="-348.66" font-family="Times New Roman,serif" font-size="14.00">0</text>
</g>
<!-- s1 -->
<g id="node5" class="node">
<title>s1</title>
<ellipse fill="none" stroke="black" cx="188.99" cy="-289.38" rx="28.98" ry="37.45"/>
<text text-anchor="middle" x="188.99" y="-300.68" font-family="Times New Roman,serif" font-size="14.00">s1</text>
<text text-anchor="middle" x="188.99" y="-285.68" font-family="Times New Roman,serif" font-size="14.00">!</text>
<text text-anchor="middle" x="188.99" y="-270.68" font-family="Times New Roman,serif" font-size="14.00">0.25</text>
</g>
<!-- q3&#45;&#45;s1 -->
<g id="edge4" class="edge">
<title>q3&#45;&#45;s1</title>
<path fill="none" stroke="black" d="M188.99,-377.73C188.99,-362.69 188.99,-343.54 188.99,-327"/>
<text text-anchor="middle" x="192.49" y="-348.66" font-family="Times New Roman,serif" font-size="14.00">1</text>
</g>
<!-- s3 -->
<g id="node6" class="node">
<title>s3</title>
<ellipse fill="none" stroke="black" cx="263.99" cy="-289.38" rx="27.65" ry="37.45"/>
<text text-anchor="middle" x="263.99" y="-300.68" font-family="Times New Roman,serif" font-size="14.00">s3</text>
<text text-anchor="middle" x="263.99" y="-285.68" font-family="Times New Roman,serif" font-size="14.00">###</text>
<text text-anchor="middle" x="263.99" y="-270.68" font-family="Times New Roman,serif" font-size="14.00">0.2</text>
</g>
<!-- q2&#45;&#45;s3 -->
<g id="edge5" class="edge">
<title>q2&#45;&#45;s3</title>
<path fill="none" stroke="black" d="M263.99,-377.73C263.99,-362.69 263.99,-343.54 263.99,-327"/>
<text text-anchor="middle" x="267.49" y="-348.66" font-family="Times New Roman,serif" font-size="14.00">0</text>
</g>
<!-- s2 -->
<g id="node7" class="node">
<title>s2</title>
<ellipse fill="none" stroke="black" cx="336.99" cy="-289.38" rx="27" ry="37.45"/>
<text text-anchor="middle" x="336.99" y="-300.68" font-family="Times New Roman,serif" font-size="14.00">s2</text>
<text text-anchor="middle" x="336.99" y="-285.68" font-family="Times New Roman,serif" font-size="14.00">&quot;&quot;</text>
<text text-anchor="middle" x="336.99" y="-270.68" font-family="Times New Roman,serif" font-size="14.00">0.2</text>
</g>
<!-- q2&#45;&#45;s2 -->
<g id="edge6" class="edge">
<title>q2&#45;&#45;s2</title>
<path fill="none" stroke="black" d="M278.24,-381.61C289.94,-363.44 306.58,-337.61 319.16,-318.07"/>
<text text-anchor="middle" x="304.49" y="-348.66" font-family="Times New Roman,serif" font-size="14.00">1</text>
</g>
<!-- q0 -->
<g id="node8" class="node">
<title>q0</title>
<ellipse fill="none" stroke="black" cx="66.99" cy="-163.43" rx="27" ry="26.74"/>
<text text-anchor="middle" x="66.99" y="-167.23" font-family="Times New Roman,serif" font-size="14.00">q0</text>
<text text-anchor="middle" x="66.99" y="-152.23" font-family="Times New Roman,serif" font-size="14.00">0.2</text>
</g>
<!-- q1&#45;&#45;q0 -->
<g id="edge7" class="edge">
<title>q1&#45;&#45;q0</title>
<path fill="none" stroke="black" d="M103.79,-263.6C95.77,-241.98 84.19,-210.78 76.17,-189.17"/>
<text text-anchor="middle" x="96.49" y="-222.71" font-family="Times New Roman,serif" font-size="14.00">0</text>
</g>
<!-- s4 -->
<g id="node9" class="node">
<title>s4</title>
<ellipse fill="none" stroke="black" cx="157.99" cy="-163.43" rx="45.92" ry="37.45"/>
<text text-anchor="middle" x="157.99" y="-174.73" font-family="Times New Roman,serif" font-size="14.00">s4</text>
<text text-anchor="middle" x="157.99" y="-159.73" font-family="Times New Roman,serif" font-size="14.00">%%%%</text>
<text text-anchor="middle" x="157.99" y="-144.73" font-family="Times New Roman,serif" font-size="14.00">0.15</text>
</g>
<!-- q1&#45;&#45;s4 -->
<g id="edge8" class="edge">
<title>q1&#45;&#45;s4</title>
<path fill="none" stroke="black" d="M121.99,-263.6C128.66,-245.23 137.84,-219.94 145.26,-199.5"/>
<text text-anchor="middle" x="142.49" y="-222.71" font-family="Times New Roman,serif" font-size="14.00">1</text>
</g>
<!-- s5 -->
<g id="node10" class="node">
<title>s5</title>
<ellipse fill="none" stroke="black" cx="28.99" cy="-37.48" rx="28.98" ry="37.45"/>
<text text-anchor="middle" x="28.99" y="-48.78" font-family="Times New Roman,serif" font-size="14.00">s5</text>
<text text-anchor="middle" x="28.99" y="-33.78" font-family="Times New Roman,serif" font-size="14.00">!!</text>
<text text-anchor="middle" x="28.99" y="-18.78" font-family="Times New Roman,serif" font-size="14.00">0.12</text>
</g>
<!-- q0&#45;&#45;s5 -->
<g id="edge9" class="edge">
<title>q0&#45;&#45;s5</title>
<path fill="none" stroke="black" d="M59.39,-137.64C53.67,-118.99 45.77,-93.21 39.46,-72.61"/>
<text text-anchor="middle" x="54.49" y="-96.75" font-family="Times New Roman,serif" font-size="14.00">0</text>
</g>
<!-- s6 -->
<g id="node11" class="node">
<title>s6</title>
<ellipse fill="none" stroke="black" cx="104.99" cy="-37.48" rx="28.98" ry="37.45"/>
<text text-anchor="middle" x="104.99" y="-48.78" font-family="Times New Roman,serif" font-size="14.00">s6</text>
<text text-anchor="middle" x="104.99" y="-33.78" font-family="Times New Roman,serif" font-size="14.00">$$</text>
<text text-anchor="middle" x="104.99" y="-18.78" font-family="Times New Roman,serif" font-size="14.00">0.08</text>
</g>
<!-- q0&#45;&#45;s6 -->
<g id="edge10" class="edge">
<title>q0&#45;&#45;s6</title>
<path fill="none" stroke="black" d="M74.59,-137.64C80.31,-118.99 88.21,-93.21 94.53,-72.61"/>
<text text-anchor="middle" x="92.49" y="-96.75" font-family="Times New Roman,serif" font-size="14.00">1</text>
</g>
</g>
</svg>
