<?xml version="1.0" encoding="UTF-8" standalone="no"?>
<!DOCTYPE svg PUBLIC "-//W3C//DTD SVG 1.1//EN"
 "http://www.w3.org/Graphics/SVG/1.1/DTD/svg11.dtd">
<!-- Generated by graphviz version 2.49.1 (20210923.0004)
 -->
<!-- Pages: 1 -->
<svg width="1934pt" height="479pt"
 viewBox="0.00 0.00 1934.00 479.00" xmlns="http://www.w3.org/2000/svg" xmlns:xlink="http://www.w3.org/1999/xlink">
<g id="graph0" class="graph" transform="scale(1 1) rotate(0) translate(4 475)">
<polygon fill="white" stroke="transparent" points="-4,4 -4,-475 1930,-475 1930,4 -4,4"/>
<!-- 0 -->
<g id="node1" class="node">
<title>0</title>
<ellipse fill="none" stroke="black" cx="1502" cy="-453" rx="27" ry="18"/>
</g>
<!-- 1 -->
<g id="node2" class="node">
<title>1</title>
<ellipse fill="none" stroke="black" cx="794" cy="-366" rx="27" ry="18"/>
<text text-anchor="middle" x="794" y="-362.3" font-family="Times New Roman,serif" font-size="14.00">!</text>
</g>
<!-- 0&#45;&gt;1 -->
<g id="edge1" class="edge">
<title>0&#45;&gt;1</title>
<path fill="none" stroke="black" d="M1475.54,-448.82C1367.11,-435.81 956.62,-386.52 830.85,-371.42"/>
<polygon fill="black" stroke="black" points="830.94,-367.91 820.6,-370.19 830.11,-374.86 830.94,-367.91"/>
<text text-anchor="middle" x="1194.5" y="-405.8" font-family="Times New Roman,serif" font-size="14.00">1</text>
</g>
<!-- 2 -->
<g id="node3" class="node">
<title>2</title>
<ellipse fill="none" stroke="black" cx="1251" cy="-366" rx="27" ry="18"/>
<text text-anchor="middle" x="1251" y="-362.3" font-family="Times New Roman,serif" font-size="14.00">##</text>
</g>
<!-- 0&#45;&gt;2 -->
<g id="edge2" class="edge">
<title>0&#45;&gt;2</title>
<path fill="none" stroke="black" d="M1478.39,-444C1433.54,-428.82 1335.92,-395.76 1284.4,-378.31"/>
<polygon fill="black" stroke="black" points="1285.33,-374.93 1274.73,-375.04 1283.08,-381.56 1285.33,-374.93"/>
<text text-anchor="middle" x="1395.5" y="-405.8" font-family="Times New Roman,serif" font-size="14.00">2</text>
</g>
<!-- 3 -->
<g id="node4" class="node">
<title>3</title>
<ellipse fill="none" stroke="black" cx="1502" cy="-366" rx="27" ry="18"/>
<text text-anchor="middle" x="1502" y="-362.3" font-family="Times New Roman,serif" font-size="14.00">$$</text>
</g>
<!-- 0&#45;&gt;3 -->
<g id="edge3" class="edge">
<title>0&#45;&gt;3</title>
<path fill="none" stroke="black" d="M1502,-434.8C1502,-423.16 1502,-407.55 1502,-394.24"/>
<polygon fill="black" stroke="black" points="1505.5,-394.18 1502,-384.18 1498.5,-394.18 1505.5,-394.18"/>
<text text-anchor="middle" x="1505.5" y="-405.8" font-family="Times New Roman,serif" font-size="14.00">2</text>
</g>
<!-- 4 -->
<g id="node5" class="node">
<title>4</title>
<ellipse fill="none" stroke="black" cx="1737" cy="-366" rx="27" ry="18"/>
<text text-anchor="middle" x="1737" y="-362.3" font-family="Times New Roman,serif" font-size="14.00">&quot;&quot;&quot;</text>
</g>
<!-- 0&#45;&gt;4 -->
<g id="edge4" class="edge">
<title>0&#45;&gt;4</title>
<path fill="none" stroke="black" d="M1525.39,-443.54C1567.45,-428.33 1655.91,-396.33 1704.07,-378.91"/>
<polygon fill="black" stroke="black" points="1705.49,-382.12 1713.7,-375.43 1703.11,-375.54 1705.49,-382.12"/>
<text text-anchor="middle" x="1636.5" y="-405.8" font-family="Times New Roman,serif" font-size="14.00">3</text>
</g>
<!-- 5 -->
<g id="node6" class="node">
<title>5</title>
<ellipse fill="none" stroke="black" cx="1870" cy="-366" rx="42.49" ry="18"/>
<text text-anchor="middle" x="1870" y="-362.3" font-family="Times New Roman,serif" font-size="14.00">%%%%</text>
</g>
<!-- 0&#45;&gt;5 -->
<g id="edge5" class="edge">
<title>0&#45;&gt;5</title>
<path fill="none" stroke="black" d="M1527.29,-446.16C1588.45,-432.03 1745.05,-395.86 1823.6,-377.72"/>
<polygon fill="black" stroke="black" points="1824.74,-381.05 1833.69,-375.39 1823.16,-374.23 1824.74,-381.05"/>
<text text-anchor="middle" x="1711.5" y="-405.8" font-family="Times New Roman,serif" font-size="14.00">4</text>
</g>
<!-- 31 -->
<g id="node7" class="node">
<title>31</title>
<ellipse fill="none" stroke="black" cx="315" cy="-279" rx="27" ry="18"/>
<text text-anchor="middle" x="315" y="-275.3" font-family="Times New Roman,serif" font-size="14.00">!</text>
</g>
<!-- 1&#45;&gt;31 -->
<g id="edge6" class="edge">
<title>1&#45;&gt;31</title>
<path fill="none" stroke="black" d="M768.25,-360.43C688.16,-346.22 443.35,-302.78 350.87,-286.37"/>
<polygon fill="black" stroke="black" points="351.34,-282.89 340.88,-284.59 350.12,-289.79 351.34,-282.89"/>
<text text-anchor="middle" x="587.5" y="-318.8" font-family="Times New Roman,serif" font-size="14.00">2</text>
</g>
<!-- 32 -->
<g id="node8" class="node">
<title>32</title>
<ellipse fill="none" stroke="black" cx="567" cy="-279" rx="27" ry="18"/>
<text text-anchor="middle" x="567" y="-275.3" font-family="Times New Roman,serif" font-size="14.00">##</text>
</g>
<!-- 1&#45;&gt;32 -->
<g id="edge7" class="edge">
<title>1&#45;&gt;32</title>
<path fill="none" stroke="black" d="M770.98,-356.38C730.45,-341.2 646.23,-309.67 599.68,-292.24"/>
<polygon fill="black" stroke="black" points="600.67,-288.87 590.08,-288.64 598.21,-295.43 600.67,-288.87"/>
<text text-anchor="middle" x="698.5" y="-318.8" font-family="Times New Roman,serif" font-size="14.00">3</text>
</g>
<!-- 33 -->
<g id="node9" class="node">
<title>33</title>
<ellipse fill="none" stroke="black" cx="747" cy="-279" rx="27" ry="18"/>
<text text-anchor="middle" x="747" y="-275.3" font-family="Times New Roman,serif" font-size="14.00">$$</text>
</g>
<!-- 1&#45;&gt;33 -->
<g id="edge8" class="edge">
<title>1&#45;&gt;33</title>
<path fill="none" stroke="black" d="M784.94,-348.61C778.13,-336.3 768.69,-319.23 760.93,-305.19"/>
<polygon fill="black" stroke="black" points="763.78,-303.11 755.87,-296.05 757.65,-306.5 763.78,-303.11"/>
<text text-anchor="middle" x="777.5" y="-318.8" font-family="Times New Roman,serif" font-size="14.00">3</text>
</g>
<!-- 34 -->
<g id="node10" class="node">
<title>34</title>
<ellipse fill="none" stroke="black" cx="819" cy="-279" rx="27" ry="18"/>
<text text-anchor="middle" x="819" y="-275.3" font-family="Times New Roman,serif" font-size="14.00">&quot;&quot;&quot;</text>
</g>
<!-- 1&#45;&gt;34 -->
<g id="edge9" class="edge">
<title>1&#45;&gt;34</title>
<path fill="none" stroke="black" d="M798.94,-348.21C802.43,-336.33 807.19,-320.17 811.19,-306.56"/>
<polygon fill="black" stroke="black" points="814.61,-307.34 814.07,-296.76 807.89,-305.36 814.61,-307.34"/>
<text text-anchor="middle" x="811.5" y="-318.8" font-family="Times New Roman,serif" font-size="14.00">4</text>
</g>
<!-- 35 -->
<g id="node11" class="node">
<title>35</title>
<ellipse fill="none" stroke="black" cx="906" cy="-279" rx="42.49" ry="18"/>
<text text-anchor="middle" x="906" y="-275.3" font-family="Times New Roman,serif" font-size="14.00">%%%%</text>
</g>
<!-- 1&#45;&gt;35 -->
<g id="edge10" class="edge">
<title>1&#45;&gt;35</title>
<path fill="none" stroke="black" d="M811.5,-351.72C829.24,-338.26 856.96,-317.22 877.8,-301.4"/>
<polygon fill="black" stroke="black" points="880.13,-304.03 885.98,-295.2 875.89,-298.45 880.13,-304.03"/>
<text text-anchor="middle" x="860.5" y="-318.8" font-family="Times New Roman,serif" font-size="14.00">5</text>
</g>
<!-- 21 -->
<g id="node12" class="node">
<title>21</title>
<ellipse fill="none" stroke="black" cx="1071" cy="-279" rx="27" ry="18"/>
<text text-anchor="middle" x="1071" y="-275.3" font-family="Times New Roman,serif" font-size="14.00">!</text>
</g>
<!-- 2&#45;&gt;21 -->
<g id="edge11" class="edge">
<title>2&#45;&gt;21</title>
<path fill="none" stroke="black" d="M1229.64,-354.92C1197.84,-339.9 1137.89,-311.59 1101.49,-294.4"/>
<polygon fill="black" stroke="black" points="1102.86,-291.18 1092.33,-290.07 1099.88,-297.51 1102.86,-291.18"/>
<text text-anchor="middle" x="1175.5" y="-318.8" font-family="Times New Roman,serif" font-size="14.00">3</text>
</g>
<!-- 22 -->
<g id="node13" class="node">
<title>22</title>
<ellipse fill="none" stroke="black" cx="1179" cy="-279" rx="27" ry="18"/>
<text text-anchor="middle" x="1179" y="-275.3" font-family="Times New Roman,serif" font-size="14.00">##</text>
</g>
<!-- 2&#45;&gt;22 -->
<g id="edge12" class="edge">
<title>2&#45;&gt;22</title>
<path fill="none" stroke="black" d="M1238.13,-349.8C1227.07,-336.75 1210.96,-317.74 1198.35,-302.85"/>
<polygon fill="black" stroke="black" points="1200.89,-300.43 1191.76,-295.06 1195.55,-304.96 1200.89,-300.43"/>
<text text-anchor="middle" x="1223.5" y="-318.8" font-family="Times New Roman,serif" font-size="14.00">4</text>
</g>
<!-- 23 -->
<g id="node14" class="node">
<title>23</title>
<ellipse fill="none" stroke="black" cx="1251" cy="-279" rx="27" ry="18"/>
<text text-anchor="middle" x="1251" y="-275.3" font-family="Times New Roman,serif" font-size="14.00">$$</text>
</g>
<!-- 2&#45;&gt;23 -->
<g id="edge13" class="edge">
<title>2&#45;&gt;23</title>
<path fill="none" stroke="black" d="M1251,-347.8C1251,-336.16 1251,-320.55 1251,-307.24"/>
<polygon fill="black" stroke="black" points="1254.5,-307.18 1251,-297.18 1247.5,-307.18 1254.5,-307.18"/>
<text text-anchor="middle" x="1254.5" y="-318.8" font-family="Times New Roman,serif" font-size="14.00">4</text>
</g>
<!-- 24 -->
<g id="node15" class="node">
<title>24</title>
<ellipse fill="none" stroke="black" cx="1323" cy="-279" rx="27" ry="18"/>
<text text-anchor="middle" x="1323" y="-275.3" font-family="Times New Roman,serif" font-size="14.00">&quot;&quot;&quot;</text>
</g>
<!-- 2&#45;&gt;24 -->
<g id="edge14" class="edge">
<title>2&#45;&gt;24</title>
<path fill="none" stroke="black" d="M1263.87,-349.8C1274.93,-336.75 1291.04,-317.74 1303.65,-302.85"/>
<polygon fill="black" stroke="black" points="1306.45,-304.96 1310.24,-295.06 1301.11,-300.43 1306.45,-304.96"/>
<text text-anchor="middle" x="1295.5" y="-318.8" font-family="Times New Roman,serif" font-size="14.00">5</text>
</g>
<!-- 11 -->
<g id="node16" class="node">
<title>11</title>
<ellipse fill="none" stroke="black" cx="1395" cy="-279" rx="27" ry="18"/>
<text text-anchor="middle" x="1395" y="-275.3" font-family="Times New Roman,serif" font-size="14.00">!</text>
</g>
<!-- 3&#45;&gt;11 -->
<g id="edge15" class="edge">
<title>3&#45;&gt;11</title>
<path fill="none" stroke="black" d="M1485.28,-351.72C1467.8,-337.83 1440.15,-315.87 1420.05,-299.9"/>
<polygon fill="black" stroke="black" points="1421.96,-296.95 1411.95,-293.47 1417.61,-302.43 1421.96,-296.95"/>
<text text-anchor="middle" x="1457.5" y="-318.8" font-family="Times New Roman,serif" font-size="14.00">3</text>
</g>
<!-- 12 -->
<g id="node17" class="node">
<title>12</title>
<ellipse fill="none" stroke="black" cx="1467" cy="-279" rx="27" ry="18"/>
<text text-anchor="middle" x="1467" y="-275.3" font-family="Times New Roman,serif" font-size="14.00">##</text>
</g>
<!-- 3&#45;&gt;12 -->
<g id="edge16" class="edge">
<title>3&#45;&gt;12</title>
<path fill="none" stroke="black" d="M1495.09,-348.21C1490.12,-336.14 1483.32,-319.64 1477.66,-305.89"/>
<polygon fill="black" stroke="black" points="1480.83,-304.38 1473.78,-296.47 1474.35,-307.05 1480.83,-304.38"/>
<text text-anchor="middle" x="1489.5" y="-318.8" font-family="Times New Roman,serif" font-size="14.00">4</text>
</g>
<!-- 13 -->
<g id="node18" class="node">
<title>13</title>
<ellipse fill="none" stroke="black" cx="1539" cy="-279" rx="27" ry="18"/>
<text text-anchor="middle" x="1539" y="-275.3" font-family="Times New Roman,serif" font-size="14.00">$$</text>
</g>
<!-- 3&#45;&gt;13 -->
<g id="edge17" class="edge">
<title>3&#45;&gt;13</title>
<path fill="none" stroke="black" d="M1509.13,-348.61C1514.37,-336.58 1521.6,-319.98 1527.63,-306.13"/>
<polygon fill="black" stroke="black" points="1530.98,-307.19 1531.76,-296.63 1524.56,-304.4 1530.98,-307.19"/>
<text text-anchor="middle" x="1525.5" y="-318.8" font-family="Times New Roman,serif" font-size="14.00">4</text>
</g>
<!-- 14 -->
<g id="node19" class="node">
<title>14</title>
<ellipse fill="none" stroke="black" cx="1611" cy="-279" rx="27" ry="18"/>
<text text-anchor="middle" x="1611" y="-275.3" font-family="Times New Roman,serif" font-size="14.00">&quot;&quot;&quot;</text>
</g>
<!-- 3&#45;&gt;14 -->
<g id="edge18" class="edge">
<title>3&#45;&gt;14</title>
<path fill="none" stroke="black" d="M1519.03,-351.72C1537.03,-337.68 1565.59,-315.41 1586.11,-299.41"/>
<polygon fill="black" stroke="black" points="1588.35,-302.1 1594.09,-293.19 1584.05,-296.58 1588.35,-302.1"/>
<text text-anchor="middle" x="1566.5" y="-318.8" font-family="Times New Roman,serif" font-size="14.00">5</text>
</g>
<!-- 7 -->
<g id="node20" class="node">
<title>7</title>
<ellipse fill="none" stroke="black" cx="1683" cy="-279" rx="27" ry="18"/>
<text text-anchor="middle" x="1683" y="-275.3" font-family="Times New Roman,serif" font-size="14.00">!</text>
</g>
<!-- 4&#45;&gt;7 -->
<g id="edge19" class="edge">
<title>4&#45;&gt;7</title>
<path fill="none" stroke="black" d="M1726.84,-349.01C1718.92,-336.55 1707.78,-319.01 1698.72,-304.74"/>
<polygon fill="black" stroke="black" points="1701.43,-302.48 1693.11,-295.92 1695.52,-306.23 1701.43,-302.48"/>
<text text-anchor="middle" x="1716.5" y="-318.8" font-family="Times New Roman,serif" font-size="14.00">4</text>
</g>
<!-- 8 -->
<g id="node21" class="node">
<title>8</title>
<ellipse fill="none" stroke="black" cx="1755" cy="-279" rx="27" ry="18"/>
<text text-anchor="middle" x="1755" y="-275.3" font-family="Times New Roman,serif" font-size="14.00">##</text>
</g>
<!-- 4&#45;&gt;8 -->
<g id="edge20" class="edge">
<title>4&#45;&gt;8</title>
<path fill="none" stroke="black" d="M1740.64,-347.8C1743.12,-336.09 1746.46,-320.34 1749.29,-306.97"/>
<polygon fill="black" stroke="black" points="1752.78,-307.39 1751.42,-296.89 1745.93,-305.94 1752.78,-307.39"/>
<text text-anchor="middle" x="1750.5" y="-318.8" font-family="Times New Roman,serif" font-size="14.00">5</text>
</g>
<!-- 9 -->
<g id="node22" class="node">
<title>9</title>
<ellipse fill="none" stroke="black" cx="1827" cy="-279" rx="27" ry="18"/>
<text text-anchor="middle" x="1827" y="-275.3" font-family="Times New Roman,serif" font-size="14.00">$$</text>
</g>
<!-- 4&#45;&gt;9 -->
<g id="edge21" class="edge">
<title>4&#45;&gt;9</title>
<path fill="none" stroke="black" d="M1751.86,-350.96C1766.19,-337.43 1788.07,-316.77 1804.53,-301.22"/>
<polygon fill="black" stroke="black" points="1807.25,-303.47 1812.12,-294.06 1802.44,-298.38 1807.25,-303.47"/>
<text text-anchor="middle" x="1790.5" y="-318.8" font-family="Times New Roman,serif" font-size="14.00">5</text>
</g>
<!-- 6 -->
<g id="node23" class="node">
<title>6</title>
<ellipse fill="none" stroke="black" cx="1899" cy="-279" rx="27" ry="18"/>
<text text-anchor="middle" x="1899" y="-275.3" font-family="Times New Roman,serif" font-size="14.00">!</text>
</g>
<!-- 5&#45;&gt;6 -->
<g id="edge22" class="edge">
<title>5&#45;&gt;6</title>
<path fill="none" stroke="black" d="M1875.87,-347.8C1879.9,-335.97 1885.34,-320.03 1889.93,-306.58"/>
<polygon fill="black" stroke="black" points="1893.32,-307.48 1893.24,-296.89 1886.7,-305.22 1893.32,-307.48"/>
<text text-anchor="middle" x="1889.5" y="-318.8" font-family="Times New Roman,serif" font-size="14.00">5</text>
</g>
<!-- 45 -->
<g id="node37" class="node">
<title>45</title>
<ellipse fill="none" stroke="black" cx="135" cy="-192" rx="27" ry="18"/>
<text text-anchor="middle" x="135" y="-188.3" font-family="Times New Roman,serif" font-size="14.00">!</text>
</g>
<!-- 31&#45;&gt;45 -->
<g id="edge36" class="edge">
<title>31&#45;&gt;45</title>
<path fill="none" stroke="black" d="M293.64,-267.92C261.84,-252.9 201.89,-224.59 165.49,-207.4"/>
<polygon fill="black" stroke="black" points="166.86,-204.18 156.33,-203.07 163.88,-210.51 166.86,-204.18"/>
<text text-anchor="middle" x="239.5" y="-231.8" font-family="Times New Roman,serif" font-size="14.00">3</text>
</g>
<!-- 46 -->
<g id="node38" class="node">
<title>46</title>
<ellipse fill="none" stroke="black" cx="243" cy="-192" rx="27" ry="18"/>
<text text-anchor="middle" x="243" y="-188.3" font-family="Times New Roman,serif" font-size="14.00">##</text>
</g>
<!-- 31&#45;&gt;46 -->
<g id="edge37" class="edge">
<title>31&#45;&gt;46</title>
<path fill="none" stroke="black" d="M302.13,-262.8C291.07,-249.75 274.96,-230.74 262.35,-215.85"/>
<polygon fill="black" stroke="black" points="264.89,-213.43 255.76,-208.06 259.55,-217.96 264.89,-213.43"/>
<text text-anchor="middle" x="287.5" y="-231.8" font-family="Times New Roman,serif" font-size="14.00">4</text>
</g>
<!-- 47 -->
<g id="node39" class="node">
<title>47</title>
<ellipse fill="none" stroke="black" cx="315" cy="-192" rx="27" ry="18"/>
<text text-anchor="middle" x="315" y="-188.3" font-family="Times New Roman,serif" font-size="14.00">$$</text>
</g>
<!-- 31&#45;&gt;47 -->
<g id="edge38" class="edge">
<title>31&#45;&gt;47</title>
<path fill="none" stroke="black" d="M315,-260.8C315,-249.16 315,-233.55 315,-220.24"/>
<polygon fill="black" stroke="black" points="318.5,-220.18 315,-210.18 311.5,-220.18 318.5,-220.18"/>
<text text-anchor="middle" x="318.5" y="-231.8" font-family="Times New Roman,serif" font-size="14.00">4</text>
</g>
<!-- 48 -->
<g id="node40" class="node">
<title>48</title>
<ellipse fill="none" stroke="black" cx="387" cy="-192" rx="27" ry="18"/>
<text text-anchor="middle" x="387" y="-188.3" font-family="Times New Roman,serif" font-size="14.00">&quot;&quot;&quot;</text>
</g>
<!-- 31&#45;&gt;48 -->
<g id="edge39" class="edge">
<title>31&#45;&gt;48</title>
<path fill="none" stroke="black" d="M327.87,-262.8C338.93,-249.75 355.04,-230.74 367.65,-215.85"/>
<polygon fill="black" stroke="black" points="370.45,-217.96 374.24,-208.06 365.11,-213.43 370.45,-217.96"/>
<text text-anchor="middle" x="359.5" y="-231.8" font-family="Times New Roman,serif" font-size="14.00">5</text>
</g>
<!-- 41 -->
<g id="node41" class="node">
<title>41</title>
<ellipse fill="none" stroke="black" cx="459" cy="-192" rx="27" ry="18"/>
<text text-anchor="middle" x="459" y="-188.3" font-family="Times New Roman,serif" font-size="14.00">!</text>
</g>
<!-- 32&#45;&gt;41 -->
<g id="edge40" class="edge">
<title>32&#45;&gt;41</title>
<path fill="none" stroke="black" d="M550.13,-264.72C532.29,-250.68 503.99,-228.41 483.66,-212.41"/>
<polygon fill="black" stroke="black" points="485.78,-209.62 475.76,-206.19 481.45,-215.12 485.78,-209.62"/>
<text text-anchor="middle" x="523.5" y="-231.8" font-family="Times New Roman,serif" font-size="14.00">4</text>
</g>
<!-- 42 -->
<g id="node42" class="node">
<title>42</title>
<ellipse fill="none" stroke="black" cx="531" cy="-192" rx="27" ry="18"/>
<text text-anchor="middle" x="531" y="-188.3" font-family="Times New Roman,serif" font-size="14.00">##</text>
</g>
<!-- 32&#45;&gt;42 -->
<g id="edge41" class="edge">
<title>32&#45;&gt;42</title>
<path fill="none" stroke="black" d="M559.89,-261.21C554.78,-249.14 547.79,-232.64 541.97,-218.89"/>
<polygon fill="black" stroke="black" points="545.1,-217.31 537.98,-209.47 538.65,-220.04 545.1,-217.31"/>
<text text-anchor="middle" x="555.5" y="-231.8" font-family="Times New Roman,serif" font-size="14.00">5</text>
</g>
<!-- 43 -->
<g id="node43" class="node">
<title>43</title>
<ellipse fill="none" stroke="black" cx="603" cy="-192" rx="27" ry="18"/>
<text text-anchor="middle" x="603" y="-188.3" font-family="Times New Roman,serif" font-size="14.00">$$</text>
</g>
<!-- 32&#45;&gt;43 -->
<g id="edge42" class="edge">
<title>32&#45;&gt;43</title>
<path fill="none" stroke="black" d="M574.11,-261.21C579.22,-249.14 586.21,-232.64 592.03,-218.89"/>
<polygon fill="black" stroke="black" points="595.35,-220.04 596.02,-209.47 588.9,-217.31 595.35,-220.04"/>
<text text-anchor="middle" x="591.5" y="-231.8" font-family="Times New Roman,serif" font-size="14.00">5</text>
</g>
<!-- 37 -->
<g id="node44" class="node">
<title>37</title>
<ellipse fill="none" stroke="black" cx="675" cy="-192" rx="27" ry="18"/>
<text text-anchor="middle" x="675" y="-188.3" font-family="Times New Roman,serif" font-size="14.00">!</text>
</g>
<!-- 33&#45;&gt;37 -->
<g id="edge43" class="edge">
<title>33&#45;&gt;37</title>
<path fill="none" stroke="black" d="M734.13,-262.8C723.07,-249.75 706.96,-230.74 694.35,-215.85"/>
<polygon fill="black" stroke="black" points="696.89,-213.43 687.76,-208.06 691.55,-217.96 696.89,-213.43"/>
<text text-anchor="middle" x="719.5" y="-231.8" font-family="Times New Roman,serif" font-size="14.00">4</text>
</g>
<!-- 38 -->
<g id="node45" class="node">
<title>38</title>
<ellipse fill="none" stroke="black" cx="747" cy="-192" rx="27" ry="18"/>
<text text-anchor="middle" x="747" y="-188.3" font-family="Times New Roman,serif" font-size="14.00">##</text>
</g>
<!-- 33&#45;&gt;38 -->
<g id="edge44" class="edge">
<title>33&#45;&gt;38</title>
<path fill="none" stroke="black" d="M747,-260.8C747,-249.16 747,-233.55 747,-220.24"/>
<polygon fill="black" stroke="black" points="750.5,-220.18 747,-210.18 743.5,-220.18 750.5,-220.18"/>
<text text-anchor="middle" x="750.5" y="-231.8" font-family="Times New Roman,serif" font-size="14.00">5</text>
</g>
<!-- 39 -->
<g id="node46" class="node">
<title>39</title>
<ellipse fill="none" stroke="black" cx="819" cy="-192" rx="27" ry="18"/>
<text text-anchor="middle" x="819" y="-188.3" font-family="Times New Roman,serif" font-size="14.00">$$</text>
</g>
<!-- 33&#45;&gt;39 -->
<g id="edge45" class="edge">
<title>33&#45;&gt;39</title>
<path fill="none" stroke="black" d="M759.87,-262.8C770.93,-249.75 787.04,-230.74 799.65,-215.85"/>
<polygon fill="black" stroke="black" points="802.45,-217.96 806.24,-208.06 797.11,-213.43 802.45,-217.96"/>
<text text-anchor="middle" x="791.5" y="-231.8" font-family="Times New Roman,serif" font-size="14.00">5</text>
</g>
<!-- 36 -->
<g id="node47" class="node">
<title>36</title>
<ellipse fill="none" stroke="black" cx="891" cy="-192" rx="27" ry="18"/>
<text text-anchor="middle" x="891" y="-188.3" font-family="Times New Roman,serif" font-size="14.00">!</text>
</g>
<!-- 34&#45;&gt;36 -->
<g id="edge46" class="edge">
<title>34&#45;&gt;36</title>
<path fill="none" stroke="black" d="M831.87,-262.8C842.93,-249.75 859.04,-230.74 871.65,-215.85"/>
<polygon fill="black" stroke="black" points="874.45,-217.96 878.24,-208.06 869.11,-213.43 874.45,-217.96"/>
<text text-anchor="middle" x="863.5" y="-231.8" font-family="Times New Roman,serif" font-size="14.00">5</text>
</g>
<!-- 27 -->
<g id="node31" class="node">
<title>27</title>
<ellipse fill="none" stroke="black" cx="963" cy="-192" rx="27" ry="18"/>
<text text-anchor="middle" x="963" y="-188.3" font-family="Times New Roman,serif" font-size="14.00">!</text>
</g>
<!-- 21&#45;&gt;27 -->
<g id="edge30" class="edge">
<title>21&#45;&gt;27</title>
<path fill="none" stroke="black" d="M1054.13,-264.72C1036.29,-250.68 1007.99,-228.41 987.66,-212.41"/>
<polygon fill="black" stroke="black" points="989.78,-209.62 979.76,-206.19 985.45,-215.12 989.78,-209.62"/>
<text text-anchor="middle" x="1027.5" y="-231.8" font-family="Times New Roman,serif" font-size="14.00">4</text>
</g>
<!-- 28 -->
<g id="node32" class="node">
<title>28</title>
<ellipse fill="none" stroke="black" cx="1035" cy="-192" rx="27" ry="18"/>
<text text-anchor="middle" x="1035" y="-188.3" font-family="Times New Roman,serif" font-size="14.00">##</text>
</g>
<!-- 21&#45;&gt;28 -->
<g id="edge31" class="edge">
<title>21&#45;&gt;28</title>
<path fill="none" stroke="black" d="M1063.89,-261.21C1058.78,-249.14 1051.79,-232.64 1045.97,-218.89"/>
<polygon fill="black" stroke="black" points="1049.1,-217.31 1041.98,-209.47 1042.65,-220.04 1049.1,-217.31"/>
<text text-anchor="middle" x="1059.5" y="-231.8" font-family="Times New Roman,serif" font-size="14.00">5</text>
</g>
<!-- 29 -->
<g id="node33" class="node">
<title>29</title>
<ellipse fill="none" stroke="black" cx="1107" cy="-192" rx="27" ry="18"/>
<text text-anchor="middle" x="1107" y="-188.3" font-family="Times New Roman,serif" font-size="14.00">$$</text>
</g>
<!-- 21&#45;&gt;29 -->
<g id="edge32" class="edge">
<title>21&#45;&gt;29</title>
<path fill="none" stroke="black" d="M1078.11,-261.21C1083.22,-249.14 1090.21,-232.64 1096.03,-218.89"/>
<polygon fill="black" stroke="black" points="1099.35,-220.04 1100.02,-209.47 1092.9,-217.31 1099.35,-220.04"/>
<text text-anchor="middle" x="1095.5" y="-231.8" font-family="Times New Roman,serif" font-size="14.00">5</text>
</g>
<!-- 26 -->
<g id="node34" class="node">
<title>26</title>
<ellipse fill="none" stroke="black" cx="1179" cy="-192" rx="27" ry="18"/>
<text text-anchor="middle" x="1179" y="-188.3" font-family="Times New Roman,serif" font-size="14.00">!</text>
</g>
<!-- 22&#45;&gt;26 -->
<g id="edge33" class="edge">
<title>22&#45;&gt;26</title>
<path fill="none" stroke="black" d="M1179,-260.8C1179,-249.16 1179,-233.55 1179,-220.24"/>
<polygon fill="black" stroke="black" points="1182.5,-220.18 1179,-210.18 1175.5,-220.18 1182.5,-220.18"/>
<text text-anchor="middle" x="1182.5" y="-231.8" font-family="Times New Roman,serif" font-size="14.00">5</text>
</g>
<!-- 25 -->
<g id="node35" class="node">
<title>25</title>
<ellipse fill="none" stroke="black" cx="1251" cy="-192" rx="27" ry="18"/>
<text text-anchor="middle" x="1251" y="-188.3" font-family="Times New Roman,serif" font-size="14.00">!</text>
</g>
<!-- 23&#45;&gt;25 -->
<g id="edge34" class="edge">
<title>23&#45;&gt;25</title>
<path fill="none" stroke="black" d="M1251,-260.8C1251,-249.16 1251,-233.55 1251,-220.24"/>
<polygon fill="black" stroke="black" points="1254.5,-220.18 1251,-210.18 1247.5,-220.18 1254.5,-220.18"/>
<text text-anchor="middle" x="1254.5" y="-231.8" font-family="Times New Roman,serif" font-size="14.00">5</text>
</g>
<!-- 17 -->
<g id="node25" class="node">
<title>17</title>
<ellipse fill="none" stroke="black" cx="1323" cy="-192" rx="27" ry="18"/>
<text text-anchor="middle" x="1323" y="-188.3" font-family="Times New Roman,serif" font-size="14.00">!</text>
</g>
<!-- 11&#45;&gt;17 -->
<g id="edge24" class="edge">
<title>11&#45;&gt;17</title>
<path fill="none" stroke="black" d="M1382.13,-262.8C1371.07,-249.75 1354.96,-230.74 1342.35,-215.85"/>
<polygon fill="black" stroke="black" points="1344.89,-213.43 1335.76,-208.06 1339.55,-217.96 1344.89,-213.43"/>
<text text-anchor="middle" x="1367.5" y="-231.8" font-family="Times New Roman,serif" font-size="14.00">4</text>
</g>
<!-- 18 -->
<g id="node26" class="node">
<title>18</title>
<ellipse fill="none" stroke="black" cx="1395" cy="-192" rx="27" ry="18"/>
<text text-anchor="middle" x="1395" y="-188.3" font-family="Times New Roman,serif" font-size="14.00">##</text>
</g>
<!-- 11&#45;&gt;18 -->
<g id="edge25" class="edge">
<title>11&#45;&gt;18</title>
<path fill="none" stroke="black" d="M1395,-260.8C1395,-249.16 1395,-233.55 1395,-220.24"/>
<polygon fill="black" stroke="black" points="1398.5,-220.18 1395,-210.18 1391.5,-220.18 1398.5,-220.18"/>
<text text-anchor="middle" x="1398.5" y="-231.8" font-family="Times New Roman,serif" font-size="14.00">5</text>
</g>
<!-- 19 -->
<g id="node27" class="node">
<title>19</title>
<ellipse fill="none" stroke="black" cx="1467" cy="-192" rx="27" ry="18"/>
<text text-anchor="middle" x="1467" y="-188.3" font-family="Times New Roman,serif" font-size="14.00">$$</text>
</g>
<!-- 11&#45;&gt;19 -->
<g id="edge26" class="edge">
<title>11&#45;&gt;19</title>
<path fill="none" stroke="black" d="M1407.87,-262.8C1418.93,-249.75 1435.04,-230.74 1447.65,-215.85"/>
<polygon fill="black" stroke="black" points="1450.45,-217.96 1454.24,-208.06 1445.11,-213.43 1450.45,-217.96"/>
<text text-anchor="middle" x="1438.5" y="-231.8" font-family="Times New Roman,serif" font-size="14.00">5</text>
</g>
<!-- 16 -->
<g id="node28" class="node">
<title>16</title>
<ellipse fill="none" stroke="black" cx="1539" cy="-192" rx="27" ry="18"/>
<text text-anchor="middle" x="1539" y="-188.3" font-family="Times New Roman,serif" font-size="14.00">!</text>
</g>
<!-- 12&#45;&gt;16 -->
<g id="edge27" class="edge">
<title>12&#45;&gt;16</title>
<path fill="none" stroke="black" d="M1479.87,-262.8C1490.93,-249.75 1507.04,-230.74 1519.65,-215.85"/>
<polygon fill="black" stroke="black" points="1522.45,-217.96 1526.24,-208.06 1517.11,-213.43 1522.45,-217.96"/>
<text text-anchor="middle" x="1510.5" y="-231.8" font-family="Times New Roman,serif" font-size="14.00">5</text>
</g>
<!-- 15 -->
<g id="node29" class="node">
<title>15</title>
<ellipse fill="none" stroke="black" cx="1611" cy="-192" rx="27" ry="18"/>
<text text-anchor="middle" x="1611" y="-188.3" font-family="Times New Roman,serif" font-size="14.00">!</text>
</g>
<!-- 13&#45;&gt;15 -->
<g id="edge28" class="edge">
<title>13&#45;&gt;15</title>
<path fill="none" stroke="black" d="M1551.87,-262.8C1562.93,-249.75 1579.04,-230.74 1591.65,-215.85"/>
<polygon fill="black" stroke="black" points="1594.45,-217.96 1598.24,-208.06 1589.11,-213.43 1594.45,-217.96"/>
<text text-anchor="middle" x="1582.5" y="-231.8" font-family="Times New Roman,serif" font-size="14.00">5</text>
</g>
<!-- 10 -->
<g id="node24" class="node">
<title>10</title>
<ellipse fill="none" stroke="black" cx="1683" cy="-192" rx="27" ry="18"/>
<text text-anchor="middle" x="1683" y="-188.3" font-family="Times New Roman,serif" font-size="14.00">!</text>
</g>
<!-- 7&#45;&gt;10 -->
<g id="edge23" class="edge">
<title>7&#45;&gt;10</title>
<path fill="none" stroke="black" d="M1683,-260.8C1683,-249.16 1683,-233.55 1683,-220.24"/>
<polygon fill="black" stroke="black" points="1686.5,-220.18 1683,-210.18 1679.5,-220.18 1686.5,-220.18"/>
<text text-anchor="middle" x="1686.5" y="-231.8" font-family="Times New Roman,serif" font-size="14.00">5</text>
</g>
<!-- 20 -->
<g id="node30" class="node">
<title>20</title>
<ellipse fill="none" stroke="black" cx="1323" cy="-105" rx="27" ry="18"/>
<text text-anchor="middle" x="1323" y="-101.3" font-family="Times New Roman,serif" font-size="14.00">!</text>
</g>
<!-- 17&#45;&gt;20 -->
<g id="edge29" class="edge">
<title>17&#45;&gt;20</title>
<path fill="none" stroke="black" d="M1323,-173.8C1323,-162.16 1323,-146.55 1323,-133.24"/>
<polygon fill="black" stroke="black" points="1326.5,-133.18 1323,-123.18 1319.5,-133.18 1326.5,-133.18"/>
<text text-anchor="middle" x="1326.5" y="-144.8" font-family="Times New Roman,serif" font-size="14.00">5</text>
</g>
<!-- 30 -->
<g id="node36" class="node">
<title>30</title>
<ellipse fill="none" stroke="black" cx="963" cy="-105" rx="27" ry="18"/>
<text text-anchor="middle" x="963" y="-101.3" font-family="Times New Roman,serif" font-size="14.00">!</text>
</g>
<!-- 27&#45;&gt;30 -->
<g id="edge35" class="edge">
<title>27&#45;&gt;30</title>
<path fill="none" stroke="black" d="M963,-173.8C963,-162.16 963,-146.55 963,-133.24"/>
<polygon fill="black" stroke="black" points="966.5,-133.18 963,-123.18 959.5,-133.18 966.5,-133.18"/>
<text text-anchor="middle" x="966.5" y="-144.8" font-family="Times New Roman,serif" font-size="14.00">5</text>
</g>
<!-- 51 -->
<g id="node50" class="node">
<title>51</title>
<ellipse fill="none" stroke="black" cx="27" cy="-105" rx="27" ry="18"/>
<text text-anchor="middle" x="27" y="-101.3" font-family="Times New Roman,serif" font-size="14.00">!</text>
</g>
<!-- 45&#45;&gt;51 -->
<g id="edge49" class="edge">
<title>45&#45;&gt;51</title>
<path fill="none" stroke="black" d="M118.13,-177.72C100.29,-163.68 71.99,-141.41 51.66,-125.41"/>
<polygon fill="black" stroke="black" points="53.78,-122.62 43.76,-119.19 49.45,-128.12 53.78,-122.62"/>
<text text-anchor="middle" x="91.5" y="-144.8" font-family="Times New Roman,serif" font-size="14.00">4</text>
</g>
<!-- 52 -->
<g id="node51" class="node">
<title>52</title>
<ellipse fill="none" stroke="black" cx="99" cy="-105" rx="27" ry="18"/>
<text text-anchor="middle" x="99" y="-101.3" font-family="Times New Roman,serif" font-size="14.00">##</text>
</g>
<!-- 45&#45;&gt;52 -->
<g id="edge50" class="edge">
<title>45&#45;&gt;52</title>
<path fill="none" stroke="black" d="M127.89,-174.21C122.78,-162.14 115.79,-145.64 109.97,-131.89"/>
<polygon fill="black" stroke="black" points="113.1,-130.31 105.98,-122.47 106.65,-133.04 113.1,-130.31"/>
<text text-anchor="middle" x="123.5" y="-144.8" font-family="Times New Roman,serif" font-size="14.00">5</text>
</g>
<!-- 53 -->
<g id="node52" class="node">
<title>53</title>
<ellipse fill="none" stroke="black" cx="171" cy="-105" rx="27" ry="18"/>
<text text-anchor="middle" x="171" y="-101.3" font-family="Times New Roman,serif" font-size="14.00">$$</text>
</g>
<!-- 45&#45;&gt;53 -->
<g id="edge51" class="edge">
<title>45&#45;&gt;53</title>
<path fill="none" stroke="black" d="M142.11,-174.21C147.22,-162.14 154.21,-145.64 160.03,-131.89"/>
<polygon fill="black" stroke="black" points="163.35,-133.04 164.02,-122.47 156.9,-130.31 163.35,-133.04"/>
<text text-anchor="middle" x="159.5" y="-144.8" font-family="Times New Roman,serif" font-size="14.00">5</text>
</g>
<!-- 50 -->
<g id="node53" class="node">
<title>50</title>
<ellipse fill="none" stroke="black" cx="243" cy="-105" rx="27" ry="18"/>
<text text-anchor="middle" x="243" y="-101.3" font-family="Times New Roman,serif" font-size="14.00">!</text>
</g>
<!-- 46&#45;&gt;50 -->
<g id="edge52" class="edge">
<title>46&#45;&gt;50</title>
<path fill="none" stroke="black" d="M243,-173.8C243,-162.16 243,-146.55 243,-133.24"/>
<polygon fill="black" stroke="black" points="246.5,-133.18 243,-123.18 239.5,-133.18 246.5,-133.18"/>
<text text-anchor="middle" x="246.5" y="-144.8" font-family="Times New Roman,serif" font-size="14.00">5</text>
</g>
<!-- 49 -->
<g id="node54" class="node">
<title>49</title>
<ellipse fill="none" stroke="black" cx="315" cy="-105" rx="27" ry="18"/>
<text text-anchor="middle" x="315" y="-101.3" font-family="Times New Roman,serif" font-size="14.00">!</text>
</g>
<!-- 47&#45;&gt;49 -->
<g id="edge53" class="edge">
<title>47&#45;&gt;49</title>
<path fill="none" stroke="black" d="M315,-173.8C315,-162.16 315,-146.55 315,-133.24"/>
<polygon fill="black" stroke="black" points="318.5,-133.18 315,-123.18 311.5,-133.18 318.5,-133.18"/>
<text text-anchor="middle" x="318.5" y="-144.8" font-family="Times New Roman,serif" font-size="14.00">5</text>
</g>
<!-- 44 -->
<g id="node49" class="node">
<title>44</title>
<ellipse fill="none" stroke="black" cx="459" cy="-105" rx="27" ry="18"/>
<text text-anchor="middle" x="459" y="-101.3" font-family="Times New Roman,serif" font-size="14.00">!</text>
</g>
<!-- 41&#45;&gt;44 -->
<g id="edge48" class="edge">
<title>41&#45;&gt;44</title>
<path fill="none" stroke="black" d="M459,-173.8C459,-162.16 459,-146.55 459,-133.24"/>
<polygon fill="black" stroke="black" points="462.5,-133.18 459,-123.18 455.5,-133.18 462.5,-133.18"/>
<text text-anchor="middle" x="462.5" y="-144.8" font-family="Times New Roman,serif" font-size="14.00">5</text>
</g>
<!-- 40 -->
<g id="node48" class="node">
<title>40</title>
<ellipse fill="none" stroke="black" cx="675" cy="-105" rx="27" ry="18"/>
<text text-anchor="middle" x="675" y="-101.3" font-family="Times New Roman,serif" font-size="14.00">!</text>
</g>
<!-- 37&#45;&gt;40 -->
<g id="edge47" class="edge">
<title>37&#45;&gt;40</title>
<path fill="none" stroke="black" d="M675,-173.8C675,-162.16 675,-146.55 675,-133.24"/>
<polygon fill="black" stroke="black" points="678.5,-133.18 675,-123.18 671.5,-133.18 678.5,-133.18"/>
<text text-anchor="middle" x="678.5" y="-144.8" font-family="Times New Roman,serif" font-size="14.00">5</text>
</g>
<!-- 54 -->
<g id="node55" class="node">
<title>54</title>
<ellipse fill="none" stroke="black" cx="27" cy="-18" rx="27" ry="18"/>
<text text-anchor="middle" x="27" y="-14.3" font-family="Times New Roman,serif" font-size="14.00">!</text>
</g>
<!-- 51&#45;&gt;54 -->
<g id="edge54" class="edge">
<title>51&#45;&gt;54</title>
<path fill="none" stroke="black" d="M27,-86.8C27,-75.16 27,-59.55 27,-46.24"/>
<polygon fill="black" stroke="black" points="30.5,-46.18 27,-36.18 23.5,-46.18 30.5,-46.18"/>
<text text-anchor="middle" x="30.5" y="-57.8" font-family="Times New Roman,serif" font-size="14.00">5</text>
</g>
</g>
</svg>
